<?xml version="1.0" encoding="utf-8"?>
<!DOCTYPE svg PUBLIC "-//W3C//DTD SVG 20010904//EN" "http://www.w3.org/TR/2001/REC-SVG-20010904/DTD/svg10.dtd">
<svg version="1.0" xmlns="http://www.w3.org/2000/svg" width="1600px" height="300px" viewBox="0 0 1600 300" preserveAspectRatio="xMidYMid meet">
 <g fill="#3766a8">
  <path d="M84.3 276 c-17.5 -3.6 -33.4 -19.7 -37.2 -37.8 -1.5 -7.4 -1.5 -164 0 -171.4 3.9 -18.5 19.2 -33.8 37.7 -37.7 3.6 -0.7 31 -1.1 86 -1.1 69.3 0 81.6 0.2 86.7 1.5 19 4.9 32.9 19.4 36.5 38 0.8 4.3 1 29.7 0.8 88 l-0.3 82 -2.4 6.6 c-3.2 9.2 -11 19.3 -19 24.6 -12.3 8.2 -6.1 7.7 -100.6 7.9 -46.2 0.1 -85.9 -0.2 -88.2 -0.6z"/>
  <path d="M517 222.9 l0 -19.1 -2.2 0.6 c-17 5.1 -33.3 5.7 -42.3 1.7 -13.5 -6 -20.1 -19.1 -21.2 -41.7 -1.6 -33.4 7.5 -50.1 29.6 -54.5 11.7 -2.3 33 0.3 52.1 6.3 l7.5 2.4 0.3 61.7 0.2 61.7 -12 0 -12 0 0 -19.1z m-7.5 -34.7 l7 -1.7 0.3 -27.7 0.2 -27.6 -4.7 -1.1 c-10.5 -2.3 -17.9 -3.2 -22.1 -2.6 -5.9 0.9 -10.8 5.3 -12.6 11.5 -3.5 11.9 -2.8 34.8 1.4 43 3.1 6.1 7 8 16 7.9 4.1 0 10.7 -0.8 14.5 -1.7z"/>
  <path d="M583.1 206.9 c-4.9 -1.6 -7.6 -3.2 -11.5 -7.2 -8.4 -8.5 -8.6 -9.5 -8.6 -52.3 l0 -36.4 12 0 11.9 0 0.3 33.8 c0.3 37.7 0.6 39 7.5 43.3 5.1 3.2 18.1 2.4 27.8 -1.7 l7 -3 0.3 -36.2 0.2 -36.2 12 0 12 0 0 48 0 48 -9.5 0 -9.4 0 -0.7 -3.6 c-0.5 -2.7 -1 -3.4 -2.3 -3 -0.9 0.3 -6.3 2.2 -12.1 4.2 -13.7 4.8 -26.9 5.6 -36.9 2.3z"/>
  <path d="M871 208 c-18.2 -3.2 -29 -14 -31.9 -32 -1.5 -8.9 -1.3 -26 0.3 -35.1 3.9 -21.7 18.5 -31.8 46 -31.9 22 0 35.6 5.8 43.2 18.6 3.7 6.3 5.4 16.1 5.3 31.4 0 20.2 -2.4 29.3 -10 37.5 -5.2 5.6 -11.9 9.2 -20.8 11.1 -7 1.5 -24.6 1.7 -32.1 0.4z m29 -18.3 c2.5 -1.2 5.2 -3.5 6.2 -5.2 3.5 -6.3 5 -27.7 2.7 -41.5 -2.1 -13 -7.6 -17.3 -22.4 -17.4 -11.2 -0.1 -17.7 2.6 -20.8 8.6 -2.9 5.7 -4.3 22.5 -3 35.1 1.7 16.6 5.3 21.3 17.3 22.6 8.1 1 14.9 0.2 20 -2.2z"/>
  <path d="M992.6 207.9 c-19.2 -3.9 -32.1 -17.8 -37.8 -40.7 -1.9 -7.4 -2.2 -11.5 -2.2 -27.7 0 -21.3 1.7 -31.4 7.4 -43.1 10.1 -20.7 33 -28.9 66.3 -23.9 11.3 1.7 27.8 5.4 29 6.4 0.4 0.4 -0.2 4.9 -1.5 10 l-2.2 9.2 -3.1 -0.7 c-1.6 -0.3 -6.6 -1.4 -11 -2.4 -29 -6.8 -44.2 -5 -52.4 6.5 -5.3 7.3 -7.2 15.5 -7.8 33.5 -1.1 31.9 5.7 49 21.1 53.1 5.8 1.6 17.7 0.6 26.9 -2.1 l7.7 -2.3 0 -17.8 0 -17.9 -14 0 -14 0 0 -10 0 -10 26.5 0 26.5 0 0 34.1 0 34 -5.7 2.5 c-3.2 1.4 -11.4 4.1 -18.3 6 -10.2 2.8 -14.7 3.6 -24.5 3.9 -6.6 0.2 -14.2 0 -16.9 -0.6z"/>
  <path d="M1111.7 207.9 c-10.7 -2.1 -21.1 -8.8 -26.3 -17.1 -4.4 -7 -6.6 -15.5 -7.1 -28.3 -1.7 -39.5 13.5 -55.1 52.1 -53.2 30.5 1.4 41.5 13.6 41.6 46 l0 10.7 -34.5 0 -34.5 0 0 3.3 c0 9.4 5.8 17.3 14.4 19.7 8.5 2.3 34.6 -0.2 45.7 -4.5 1.4 -0.5 1.9 0.8 3.3 8.1 1.2 6.7 1.3 9 0.4 9.5 -1.6 1 -17.8 4.6 -26.5 5.8 -8.5 1.3 -21.9 1.2 -28.6 0z m36 -63 c-0.7 -7.8 -3 -13.4 -6.7 -16.1 -3.9 -2.9 -14.1 -4.2 -21.7 -3 -11.1 1.9 -15.4 7.1 -16.7 20.5 l-0.6 5.7 23.1 0 23.2 0 -0.6 -7.1z"/>
  <path d="M1209 208.5 c-0.8 -0.2 -6.1 -0.9 -11.8 -1.5 -5.6 -0.7 -10.4 -1.5 -10.6 -1.9 -0.4 -0.6 0.9 -11 1.9 -15.6 0.4 -2.1 0.5 -2.1 12.2 -0.3 13.7 2 29 2.3 36.4 0.7 12.8 -2.8 16.2 -15.9 5.3 -20.5 -1.9 -0.8 -11.3 -2.8 -21 -4.4 -9.6 -1.6 -19.7 -3.9 -22.4 -5.1 -9 -3.9 -13 -10.6 -13 -21.9 0 -13.9 6.4 -22.3 20 -26.5 8.7 -2.6 27.9 -3.1 46 -1 8.5 0.9 15.7 1.9 15.9 2 0.8 0.9 -2.3 17.5 -3.3 17.5 -0.6 0 -6 -0.7 -12.1 -1.5 -6 -0.8 -15.3 -1.5 -20.5 -1.5 -15.7 0 -21 2.5 -21 10 0 6.5 1.9 7.3 28 11.5 26 4.2 32.9 9.9 33.8 27.7 0.4 8 0.2 9.3 -2.3 14.4 -4.3 8.9 -13.1 14.1 -29.3 17.3 -4.7 1 -28.2 1.4 -32.2 0.6z"/>
  <path d="M1322.9 208.4 c-1.5 -0.3 -5.1 -1.9 -8 -3.7 -4.3 -2.6 -5.9 -4.4 -8.4 -9.1 l-3 -6 -0.3 -30.3 -0.3 -30.3 -10.5 0 -10.4 0 0 -9 0 -9 10.5 0 10.5 0 0 -14 0 -14 12 0 12 0 0 14 0 14 18.5 0 18.5 0 0 9 0 9 -18.5 0 -18.5 0 0 25.3 c0 27.2 0.6 31.8 4.7 34.4 3.3 2.2 12.5 2.2 22.6 -0.1 4.3 -1 8 -1.6 8.3 -1.4 0.6 0.7 2.8 15.7 2.3 16.2 -0.3 0.3 -4.7 1.5 -9.9 2.6 -9.1 2.1 -26.6 3.4 -32.1 2.4z"/>
  <path d="M1409.3 207.5 c-22.7 -4.9 -31.3 -18.3 -31.3 -48.5 0.1 -30.5 8.7 -43.7 31.8 -48.5 8.1 -1.8 22.2 -1.9 31.1 -0.4 17.6 3.1 28.2 12.7 31.6 28.5 1.8 8.7 1.9 31.8 0.1 39.9 -1.9 8.6 -3.9 12.8 -8.7 18 -8.1 8.7 -19.6 12.5 -37.9 12.4 -5.8 0 -13.3 -0.7 -16.7 -1.4z m30.7 -17.8 c2.5 -1.2 5.2 -3.5 6.2 -5.2 3.5 -6.3 5 -27.7 2.7 -41.5 -2.1 -13 -7.6 -17.3 -22.4 -17.4 -11.2 -0.1 -17.7 2.6 -20.8 8.6 -2.9 5.7 -4.3 22.5 -3 35.1 1.7 16.6 5.3 21.3 17.3 22.6 8.1 1 14.9 0.2 20 -2.2z"/>
  <path d="M346 140 l0 -67 44 0 44 0 0 10 0 10 -31.5 0 -31.5 0 0 16.5 0 16.5 29.4 0 c16.2 0 29.6 0.3 29.8 0.8 0.2 0.4 0.2 4.9 0 10 l-0.3 9.2 -29.5 0 -29.4 0 0 20.5 0 20.5 31.9 0 c17.6 0 32.1 0.3 32.3 0.8 0.2 0.4 0.2 4.9 0 10 l-0.3 9.2 -44.5 0 -44.4 0 0 -67z"/>
  <path d="M678 159 l0 -48 12 0 12 0 0 48 0 48 -12 0 -12 0 0 -48z"/>
  <path d="M726 159 l0 -48 9.5 0 c7.6 0 9.5 0.3 9.5 1.4 0 0.8 0.4 2.6 1 4.1 l1 2.6 3.7 -2 c2.1 -1 7.6 -3.1 12.3 -4.6 10.8 -3.6 27.3 -4.1 35.7 -1.2 6.5 2.3 13.1 8.1 16.3 14.3 l2.5 4.9 0.3 38.3 0.3 38.2 -12 0 -12 0 -0.3 -33.7 c-0.3 -32.1 -0.4 -34 -2.4 -37.8 -1.2 -2.2 -3.6 -4.9 -5.5 -6 -6 -3.5 -18.2 -2.2 -31.3 3.5 l-4.6 1.9 0 36.1 0 36 -12 0 -12 0 0 -48z"/>
  <path d="M1494 159 l0 -48 8.4 0 8.4 0 1.2 5 c0.7 2.8 1.4 5 1.7 5 0.3 0 2.5 -1.7 4.8 -3.9 2.3 -2.1 6.8 -4.8 10.1 -6.1 5 -1.9 7.2 -2.1 14.4 -1.7 4.7 0.3 9.3 0.8 10.3 1.2 2 0.8 2 1.7 -0.5 13.1 l-1.1 5.1 -4.6 -0.9 c-6.5 -1.3 -14.8 -0.1 -20.4 3 -9.1 4.9 -8.7 2.8 -8.7 41.8 l0 34.4 -12 0 -12 0 0 -48z"/>
  <path d="M677 86 l0 -11 12.5 0 12.5 0 0 11 0 11 -12.5 0 -12.5 0 0 -11z"/>
 </g>
 <g fill="#3e70b4">
  <path d="M151.4 271 c-6.5 -0.7 -15.2 -2.8 -16.9 -4 -0.5 -0.4 -2.6 -1.1 -4.5 -1.5 -7.5 -1.6 -35 -17 -35 -19.6 0 -0.5 -0.5 -0.9 -1.2 -0.9 -0.9 0 -12.5 -11.4 -19.3 -19 -2 -2.3 -11.5 -16.8 -11.5 -17.7 0 -0.4 -1.5 -3.9 -3.4 -7.7 -8.6 -17.7 -11.8 -38.1 -9.8 -61.5 1.2 -13.6 5.6 -29.5 10.6 -38.5 1.4 -2.6 2.6 -5.2 2.6 -5.9 0 -0.7 0.9 -2.3 2 -3.4 1.1 -1.2 3 -3.9 4.2 -6.1 3.5 -6.1 6.6 -9.9 15.4 -18.6 8.7 -8.8 12.5 -11.9 18.6 -15.4 2.2 -1.2 4.9 -3.1 6.1 -4.2 1.1 -1.1 2.7 -2 3.4 -2 0.7 0 3.3 -1.2 5.9 -2.6 8.9 -4.9 24.9 -9.4 38.3 -10.6 23.3 -2.1 44 1.2 61.7 9.8 3.8 1.9 7.3 3.4 7.7 3.4 0.9 0 15.4 9.5 17.7 11.5 7.6 6.8 19 18.4 19 19.3 0 0.7 0.4 1.2 0.9 1.2 2.6 0 18 27.5 19.6 35 0.4 1.9 1.1 4 1.5 4.5 1.9 2.4 4.1 15.3 4.7 27 l0.6 12.7 -2.2 -1.2 c-1.2 -0.6 -11.3 -9.9 -22.4 -20.5 -11.1 -10.6 -20.4 -19.2 -20.6 -19 -0.2 0.2 2 4.4 4.8 9.3 9.1 15.9 16.3 33.1 21.1 50.4 l1.9 6.8 -4.2 1 c-18.9 4.8 -52.5 19.8 -59.5 26.7 -0.7 0.7 -1.6 1.3 -2 1.3 -1.7 0 -15.5 14.4 -18.7 19.4 -2 3.1 -3.7 5.6 -3.9 5.6 -0.2 0 -0.1 -1.1 0.1 -2.4 0.3 -1.4 -0.9 -7.5 -2.6 -13.6 -5.1 -18.4 -12.6 -32.6 -22.1 -42.1 l-5 -5 2.8 -1 c1.5 -0.5 3.6 -1.3 4.7 -1.8 1.1 -0.5 3.4 -1.4 5.2 -2.1 2.7 -1 3 -1.5 2.1 -3 -0.9 -1.4 -1.7 -1.6 -3.5 -0.9 -4.2 1.6 -4 1 0.5 -1.7 2.4 -1.4 4.1 -2.8 3.8 -3.1 -0.2 -0.3 -2.4 0.6 -4.8 2 -6.3 3.7 -21.1 8.1 -39.3 11.7 -17.1 3.4 -23.1 5.8 -28.2 11.2 -3.3 3.4 -6.3 9.4 -6.3 12.5 0 1 6.6 8.3 14.6 16.3 20.3 20.1 55.4 56.9 55.4 58.1 0 1 -1.4 1 -10.6 -0.1z m-83.1 -100.6 c0.9 -1 -0.4 -3.4 -1.9 -3.4 -0.8 0 -1.4 0.6 -1.4 1.3 0 2.2 1.9 3.5 3.3 2.1z m0.5 -8.2 c0.3 -1.6 -0.2 -2.2 -1.5 -2.2 -1.5 0 -1.6 0.2 -0.3 1 1.3 0.8 1.2 1 -0.2 1 -1 0 -1.8 0.7 -1.8 1.6 0 2.4 3.5 1.2 3.8 -1.4z m110 -1.2 c1.8 -1.4 3.2 -2.8 3.2 -3.2 0 -1.7 -5.5 -0.1 -8.1 2.3 -1.6 1.4 -3.1 2.4 -3.4 2.1 -0.3 -0.3 -0.5 0 -0.5 0.6 0 2.8 4 2 8.8 -1.8z m0.8 -8.2 c2.3 -2.4 4.8 -5.4 5.8 -6.8 1 -1.5 1.6 -1.9 1.6 -0.9 0 0.8 -1.3 3 -3 4.9 -3.2 3.9 -3.7 5.5 -1.6 6.3 1.8 0.7 8.5 -8.2 10.1 -13.5 3 -10.2 2.7 -21.7 -1 -30.5 l-1.4 -3.2 -5.3 1.8 c-8.8 3 -17.1 7.6 -22.6 12.6 -6.2 5.6 -12.2 16.9 -12.9 24.2 l-0.4 4.8 3.3 -6.5 c4.9 -9.6 14.5 -19.3 23.2 -23.4 3.9 -1.9 8.3 -3.7 9.8 -4 2.5 -0.6 2.8 -0.3 3.4 3 1.4 7.4 -1.5 21.1 -5.3 25.4 -0.8 0.8 -3.7 3.9 -6.6 6.8 -2.9 3 -4.3 4.9 -3.2 4.4 1.1 -0.6 3.8 -3 6.1 -5.4z"/>
  <path d="M203.8 219.8 c0.2 -1 -0.1 -1.8 -0.8 -1.8 -4.1 0 11.9 -11.7 23.5 -17.1 11.3 -5.3 12.5 -5.2 7.8 0.4 -5.5 6.3 -17.5 17.7 -18.8 17.7 -0.3 0 -0.5 -0.7 -0.5 -1.5 0 -1.7 -2.1 -2 -3.6 -0.5 -0.6 0.6 -2.6 1.8 -4.6 2.8 -3.4 1.8 -3.5 1.8 -3 0z"/>
 </g>
 <g fill="#ffffff">
  <path d="M185.1 232.9 c-0.1 -1.4 -1.5 -7.4 -3.1 -13.4 -5.1 -18 -12.6 -32.2 -22 -41.6 -4.1 -4.1 -4.7 -5.1 -3.2 -5.6 13 -4.6 22 -10 28.2 -17 5.1 -5.8 7.6 -11.3 9 -19.5 1.3 -7.3 0.2 -16.9 -2.5 -23.4 l-1.4 -3.3 -5.3 1.8 c-8.8 3 -17.1 7.6 -22.6 12.6 -6.2 5.6 -12.2 16.9 -12.9 24.2 l-0.4 4.8 3.3 -6.5 c4.9 -9.6 14.5 -19.3 23.2 -23.4 3.9 -1.9 8.3 -3.7 9.8 -4 2.5 -0.6 2.8 -0.3 3.4 3 1 5.2 -0.3 14.9 -2.5 20 -1.1 2.4 -4.1 6.6 -6.7 9.4 -9.6 10.3 -22.7 15.8 -51.3 21.6 -9.8 2 -19.6 4.7 -22.2 5.9 -6 3.1 -11.6 9.5 -13.1 15 -0.7 2.5 -1.5 4.5 -1.8 4.4 -0.8 -0.1 -17.1 -18.5 -19.9 -22.6 -1.9 -2.6 -2.5 -4.7 -2.5 -8.6 0 -7.8 3.3 -12.4 17.7 -24.7 6.8 -5.8 23.5 -20.1 37.3 -31.9 13.7 -11.8 25.1 -21.6 25.4 -21.9 0.6 -0.4 0 -0.8 -11 -7.7 -4.4 -2.7 -8 -5.3 -8 -5.6 0 -0.9 14.2 -4.7 21.8 -6 8.6 -1.4 22.4 -1.1 31 0.7 9.6 1.9 24.2 8.8 33.3 15.5 23.1 17.1 44.3 51.9 54.9 90.1 l1.9 6.8 -4.2 1 c-8.3 2.1 -23.1 7.3 -31.1 10.9 -26 11.7 -41.1 23.3 -51.3 39.7 -1.1 1.8 -1.2 1.7 -1.2 -0.7z"/>
 </g>
</svg>