<?xml version="1.0" encoding="utf-8"?>
<!DOCTYPE svg PUBLIC "-//W3C//DTD SVG 20010904//EN" "http://www.w3.org/TR/2001/REC-SVG-20010904/DTD/svg10.dtd">
<svg version="1.0" xmlns="http://www.w3.org/2000/svg" width="1049px" height="226px" viewBox="0 0 1049 226" preserveAspectRatio="xMidYMid meet">
 <g fill="#ffffff">
  <path d="M143.6 180.9 c-5.9 -17.9 -11.5 -29.5 -17.3 -36 -2.5 -2.7 -4.4 -5.1 -4.2 -5.3 0.2 -0.2 2.8 -1.6 5.7 -3.1 6 -3.2 13.1 -10.4 16 -16.1 2.8 -5.6 4.5 -15 3.9 -21.4 -1 -8.8 -2.9 -16 -4.4 -16 -2.6 0 -20 7.4 -25.1 10.8 -6.7 4.4 -13.6 12.7 -15.7 19.1 -1.7 5.1 -1.8 16.7 -0.1 12.6 6.3 -15.4 13.8 -24 25.7 -29.9 4.1 -1.9 8.6 -3.8 10.1 -4.2 2.5 -0.5 2.7 -0.3 3.3 4.1 1.8 11.8 -1.5 21.6 -9.8 29.1 -4.8 4.3 -16.4 10.6 -22.1 12 -1.6 0.4 -4.1 1.3 -5.5 2 -1.4 0.8 -3.3 1.4 -4.2 1.4 -3.4 0 -17.5 4.1 -22.5 6.6 -6.1 3 -13.1 9.5 -14 13 -0.3 1.3 -0.9 2.4 -1.3 2.3 -1.4 -0.2 -18.8 -20.2 -20.9 -24.1 -2.8 -5.2 -2.4 -12 1.1 -17.4 1.2 -1.9 18.5 -17.4 38.5 -34.6 19.9 -17.1 36.2 -31.4 36.2 -31.7 0 -0.3 -5 -3.3 -11.1 -6.6 l-11 -6 5.7 -1.8 c9.6 -2.9 19.3 -4 30.9 -3.4 35.9 1.8 64 24.1 84.5 67 6.4 13.3 15.5 39 14.5 40.7 -0.3 0.6 -1.3 1 -2 1 -2.8 0 -21.1 6.3 -30.9 10.6 -22.9 10.1 -39.4 23.1 -48.1 37.9 -0.9 1.4 -2 -1 -5.9 -12.6z"/>
  <path d="M375 156 c0 -6.6 -0.2 -12 -0.5 -12 -0.2 0 -3 0.7 -6.2 1.5 -23 6 -35.3 -4.6 -35.3 -30.5 0 -29.1 14.4 -37.2 49.3 -27.9 l7.7 2.1 0 39.4 0 39.4 -7.5 0 -7.5 0 0 -12z m-9.4 -21.1 c10.4 -1.8 9.4 0.3 9.4 -19.9 l0 -17.8 -2.5 -0.6 c-1.3 -0.3 -5.1 -0.9 -8.4 -1.3 -12.3 -1.2 -15.6 3 -15.6 19.7 0.1 12.6 1.7 17.3 6.7 19.5 4 1.7 3.2 1.7 10.4 0.4z"/>
  <path d="M414.6 145.6 c-2.1 -0.8 -5.1 -2.7 -6.7 -4.2 -5 -4.8 -5.9 -10.2 -5.9 -34.6 l0 -21.8 8 0 8 0 0 21.9 c0 20.5 0.1 22 2 24.4 3.8 4.8 11.6 5.2 21.8 1.2 l4.2 -1.7 0 -22.9 0 -22.9 7.5 0 7.5 0 0 30.5 0 30.5 -6 0 c-5.2 0 -6 -0.3 -6 -1.8 0 -3.1 -0.9 -3.1 -7.8 -0.5 -8.3 3.1 -20.8 4 -26.6 1.9z"/>
  <path d="M591.1 146 c-7.6 -1.6 -12.6 -5.3 -15.8 -11.7 -2.7 -5.5 -2.8 -6.5 -2.8 -19.3 0.1 -10 0.5 -14.4 1.6 -17 4.6 -10.3 12.2 -14 28.3 -14 15.7 0 23.7 3.5 28.2 12.2 2.1 4 3.5 17.2 2.8 25.3 -1.1 12.3 -5.5 19.4 -14.3 23.1 -4.3 1.9 -21.6 2.7 -28 1.4z m19.4 -10.4 c6.1 -2.6 7.5 -6.4 7.5 -19.9 0 -18.7 -2.7 -22.2 -16.8 -21.5 -6.8 0.3 -7.6 0.6 -10.2 3.5 -2.3 2.5 -3 4.5 -3.5 9.9 -1 9.2 0 19.9 2.2 23.7 3.1 5.3 13.4 7.4 20.8 4.3z"/>
  <path d="M668.4 146.1 c-14.6 -3.5 -22.6 -14.7 -24.4 -34.4 -0.9 -9.5 -0.9 -12.2 0.6 -23.7 1.6 -12 8.3 -21.9 17.7 -26.1 8.7 -4 30.5 -3.2 46.4 1.6 0.8 0.3 0.8 1.9 -0.4 6.2 -0.8 3.2 -1.6 5.9 -1.7 6 -0.1 0.1 -3.8 -0.6 -8.1 -1.6 -18.6 -4.4 -27 -3.7 -32.9 2.9 -5 5.5 -6.1 10.3 -6.1 26 0 15.5 1.6 21.9 6.8 27 4.3 4.2 9.4 5.4 17.4 4 11.9 -2 11.3 -1.2 11.3 -14.5 l0 -11.5 -9 0 -9 0 0 -6 0 -6 17 0 17 0 -0.2 21.6 -0.3 21.6 -6.3 2.4 c-12.4 4.6 -27.3 6.5 -35.8 4.5z"/>
  <path d="M743.5 146.4 c-10.1 -2.6 -17.3 -8.8 -19.7 -16.8 -1.7 -5.6 -1.7 -26 0.1 -30.9 3.6 -10.3 12.1 -14.7 28.6 -14.7 21.7 0 28.3 5.9 29.3 26.3 l0.5 9.7 -22.2 0 -22.1 0 0 3.1 c0 4.3 2.8 8.6 6.9 10.5 3.9 1.9 13.8 2.1 21.6 0.4 12.1 -2.5 11.1 -2.7 11.8 1.6 1.2 7 1.2 7 -6 8.8 -6.8 1.7 -25 3 -28.8 2z m23.5 -38.1 c0 -4.9 -2 -10.2 -4.7 -12.3 -2.1 -1.6 -4 -2 -10 -2 -7.2 0 -7.6 0.1 -10.9 3.4 -2.3 2.3 -3.4 4.4 -3.4 6.3 0 1.5 -0.3 3.8 -0.6 5.1 l-0.6 2.2 15.1 0 15.1 0 0 -2.7z"/>
  <path d="M795.7 146.1 c-3.2 -0.5 -5.9 -1 -6.1 -1.2 -0.2 -0.2 0 -2.6 0.3 -5.4 l0.6 -5 6 0.5 c3.3 0.3 10.6 0.5 16.2 0.5 8.8 0 10.5 -0.3 13 -2.1 2.2 -1.7 2.8 -2.9 2.8 -6 0 -5 -1.8 -5.9 -17.3 -8.5 -6.4 -1.1 -13.3 -2.8 -15.2 -3.7 -6.6 -3.2 -9 -13.3 -5.1 -21.8 2.9 -6.4 8.7 -8.8 22.6 -9.2 11.8 -0.4 24.3 0.4 26.4 1.7 1 0.6 1.1 2.2 0.6 6 -0.6 4.2 -1 5.1 -2.3 4.6 -2.6 -1 -23.6 -1.8 -27.5 -1.1 -4.2 0.8 -7.2 4.4 -6.2 7.4 0.8 2.6 4.3 4 13.3 5.2 19.5 2.7 24.1 5.2 26.3 14.7 2.2 9.5 -1.8 17.2 -11.3 21.4 -4.5 1.9 -7.2 2.3 -18.3 2.5 -7.1 0.1 -15.6 -0.1 -18.8 -0.5z"/>
  <path d="M870.5 145.5 c-8.2 -4.5 -9.5 -8.9 -9.5 -32.2 l0 -17.3 -6.5 0 -6.5 0 0 -5.5 0 -5.5 6.5 0 6.5 0 0 -9 0 -9 7.5 0 7.4 0 0.3 8.8 0.3 8.7 11.8 0.3 11.7 0.3 0 5.4 0 5.5 -12 0 -12 0 0 15.9 c0 8.8 0.4 17.1 1 18.5 0.5 1.4 2.1 3.3 3.5 4.2 2.5 1.6 3.2 1.6 10.8 0.2 4.5 -0.9 8.3 -1.5 8.3 -1.4 0.1 0 0.4 2.4 0.8 5.2 l0.6 5.2 -4.7 1.2 c-8.2 2.1 -22.3 2.4 -25.8 0.5z"/>
  <path d="M927.7 146 c-9.6 -2.5 -15.1 -7.6 -17.7 -16.6 -1.9 -6.3 -0.9 -28 1.4 -32.4 5 -9.6 12.3 -13 28.1 -13 15.8 0 23.1 3.4 28.1 13 1.3 2.6 1.9 6.6 2.2 15.2 0.7 18.9 -2.2 26.4 -12.4 31.4 -4.8 2.3 -7.1 2.8 -15.8 3 -5.5 0.2 -11.8 -0.1 -13.9 -0.6z m19.8 -10.4 c6 -2.5 7 -5.3 7 -19.6 0 -18.8 -2.2 -22 -15 -22 -12.6 0 -15.5 4 -15.5 21.8 0 12.6 1.5 16.7 7 19.4 4.2 2.2 11.8 2.3 16.5 0.4z"/>
  <path d="M268.5 103 l0 -43 28.3 0 28.2 0 0 6 0 6 -20.5 0 -20.5 0 0 11.5 0 11.5 19 0 19 0 0 6 0 6 -19 0 -19 0 0 13.5 0 13.5 21 0 21 0 0 6 0 6 -28.7 0 -28.8 0 0 -43z"/>
  <path d="M474 115.5 l0 -30.5 7.5 0 7.5 0 0 30.5 0 30.5 -7.5 0 -7.5 0 0 -30.5z"/>
  <path d="M502 115.5 l0 -30.5 6 0 c5.4 0 6 0.2 6.6 2.4 l0.5 2.3 8.2 -2.8 c6.4 -2.2 10 -2.9 16.3 -2.9 10.3 0 15.7 2.5 19.4 9.1 2.4 4.3 2.5 4.9 2.8 28.7 l0.3 24.2 -8 0 -8.1 0 0 -21.5 c0 -23.9 -0.5 -26.2 -6 -28.5 -3.6 -1.5 -9.9 -0.8 -17.1 1.7 l-4.9 1.8 0 23.2 0 23.3 -8 0 -8 0 0 -30.5z"/>
  <path d="M981 115 l0 -31 5.5 0 c5 0 5.5 0.2 5.5 2.3 0 2.8 1.9 5.7 2.6 4 0.9 -2 7.4 -5.6 11.8 -6.4 2.2 -0.5 6.3 -0.5 8.9 -0.2 4.6 0.6 4.8 0.7 4.2 3.4 -0.3 1.6 -0.7 4.1 -1 5.7 -0.5 2.6 -0.7 2.7 -6.4 2.4 -4.1 -0.3 -6.9 0.1 -9.2 1.3 -7.2 3.7 -6.9 2.5 -6.9 27.2 l0 22.3 -7.5 0 -7.5 0 0 -31z"/>
  <path d="M474 68 l0 -7 7.5 0 7.5 0 0 7 0 7 -7.5 0 -7.5 0 0 -7z"/>
 </g>
</svg>